<?xml version="1.0" standalone="no"?>
<!DOCTYPE svg PUBLIC "-//W3C//DTD SVG 20010904//EN"
 "http://www.w3.org/TR/2001/REC-SVG-20010904/DTD/svg10.dtd">
<svg version="1.0" xmlns="http://www.w3.org/2000/svg"
 width="810.000000pt" height="450.000000pt" viewBox="0 0 810.000000 450.000000"
 preserveAspectRatio="xMidYMid meet">
<metadata>
Created by potrace 1.15, written by Peter Selinger 2001-2017
</metadata>
<g transform="translate(0.000000,450.000000) scale(0.100000,-0.100000)"
fill="#000000" stroke="none">
<path d="M840 2240 l0 -2140 374 0 374 0 23 98 c12 53 26 101 31 107 4 5 8 23
8 40 1 16 9 68 19 115 43 195 67 255 112 277 22 11 74 94 114 181 21 48 152
173 223 215 34 20 94 49 133 66 71 30 74 30 213 26 78 -3 165 -8 195 -10 30
-3 87 -3 128 1 68 6 75 9 88 35 8 15 30 44 47 63 18 20 55 78 82 128 l48 93
-37 80 c-36 76 -82 202 -120 328 -17 54 -35 76 -35 41 0 -8 -4 -12 -10 -9 -5
3 -10 1 -10 -4 0 -18 -28 -12 -70 14 -22 14 -40 21 -40 16 0 -6 -9 -8 -19 -6
-15 3 -18 0 -14 -12 5 -13 2 -15 -11 -10 -10 4 -15 3 -11 -3 3 -5 -4 -17 -15
-27 -12 -10 -33 -28 -47 -41 -14 -13 -31 -21 -39 -18 -8 3 -11 0 -7 -10 5 -12
-7 -19 -29 -15 -5 0 -8 -3 -8 -7 0 -5 -7 -17 -16 -28 -8 -10 -13 -12 -9 -4 5
11 2 10 -7 -2 -8 -9 -23 -15 -34 -13 -10 2 -21 4 -23 4 -2 1 9 12 24 26 22 18
32 21 42 13 10 -8 12 -7 8 4 -4 9 13 34 43 65 28 27 57 64 66 81 9 18 22 32
28 32 6 0 9 2 6 5 -3 3 7 38 23 76 31 76 37 135 17 162 -12 15 -19 14 -83 -13
-84 -36 -88 -36 -104 -7 -10 20 -8 31 15 77 52 104 31 275 -51 416 -29 49 -51
104 -36 89 5 -5 20 -30 33 -55 32 -62 131 -210 140 -210 5 0 8 6 8 13 0 6 25
-15 55 -48 l55 -60 -7 45 c-3 25 -12 62 -20 84 -7 21 -13 49 -13 62 0 15 -6
24 -15 24 -8 0 -15 9 -15 20 0 13 -5 18 -15 14 -8 -4 -15 -1 -15 6 0 14 -25
40 -39 40 -6 0 -11 6 -11 13 0 17 -44 59 -53 51 -4 -4 -15 4 -26 17 -13 16
-30 24 -52 24 -18 0 -35 6 -40 15 -41 80 -54 169 -36 243 5 23 22 58 36 77 14
19 25 38 23 43 -1 4 7 7 19 7 15 0 19 -5 15 -15 -3 -8 -2 -15 3 -15 16 0 34
-49 24 -62 -6 -7 -13 -41 -15 -76 l-4 -62 43 2 c49 1 78 -18 67 -45 -4 -10
-17 -17 -34 -17 -28 0 -29 -1 -14 -27 7 -16 14 -33 14 -40 0 -6 9 -15 20 -18
11 -3 27 -13 35 -21 8 -9 15 -11 15 -5 0 6 7 11 15 11 8 0 15 -5 15 -12 0 -6
3 -9 6 -6 3 4 0 17 -7 30 -7 12 -14 28 -15 33 0 6 -2 15 -4 20 -1 6 -2 19 -1
30 1 11 -8 30 -19 43 -11 12 -17 22 -11 22 5 0 7 9 4 20 -3 11 -1 20 5 20 5 0
9 -7 8 -16 0 -9 4 -19 11 -21 9 -3 10 4 3 26 -4 16 -5 32 -2 36 4 3 0 10 -7
14 -16 10 -34 97 -25 123 3 10 12 18 21 18 14 0 14 3 -2 20 -10 11 -16 22 -13
25 2 2 15 -13 29 -34 13 -22 27 -37 31 -34 5 2 7 -6 5 -19 -1 -14 3 -22 10
-21 7 2 10 -4 6 -13 -7 -19 16 -65 30 -57 5 3 6 -3 2 -17 -5 -15 -4 -20 4 -16
6 4 11 1 11 -6 0 -10 2 -10 9 1 5 8 7 20 4 28 -3 7 -1 13 5 13 6 0 9 -11 8
-24 -2 -19 1 -23 15 -21 10 2 23 -3 30 -11 11 -13 14 -12 25 8 12 20 13 13 14
-59 0 -55 4 -83 13 -87 10 -5 10 -7 0 -12 -20 -9 -15 -19 11 -22 15 -1 27 5
31 16 6 16 7 16 16 0 6 -10 17 -18 25 -18 9 0 22 -7 30 -15 9 -8 12 -15 8 -15
-3 0 -1 -6 5 -13 8 -10 7 -14 -4 -14 -8 0 -12 4 -9 9 3 4 0 8 -5 8 -6 0 -11
-13 -11 -29 0 -32 -18 -51 -49 -54 -12 -1 -21 -5 -21 -9 0 -4 -5 -8 -10 -8 -6
0 -9 5 -8 11 2 6 -5 13 -14 14 -11 2 -15 -2 -11 -13 4 -10 2 -13 -5 -8 -7 4
-12 1 -12 -8 0 -8 7 -19 16 -24 9 -5 14 -15 10 -21 -4 -6 -12 -9 -17 -6 -10 7
-10 6 -13 -70 -2 -54 2 -77 13 -71 9 6 5 -34 -6 -64 -9 -22 -7 -27 20 -43 17
-10 26 -22 21 -25 -6 -4 -7 -20 -3 -37 6 -27 14 -18 10 13 -1 6 3 12 9 12 6 0
8 4 5 10 -3 5 0 7 8 4 8 -3 14 1 14 10 0 8 -4 13 -9 10 -4 -3 -8 0 -8 7 0 6 8
9 19 6 13 -3 18 0 15 8 -4 9 5 11 30 9 28 -4 40 1 62 23 24 24 28 25 34 9 5
-15 8 -14 20 8 7 14 17 26 21 26 13 0 20 -18 9 -25 -5 -3 -10 -15 -10 -26 0
-11 5 -17 10 -14 6 3 10 1 10 -4 0 -6 -6 -11 -14 -11 -22 0 -24 -33 -3 -52 11
-10 14 -19 8 -23 -7 -4 -5 -15 5 -30 9 -14 14 -31 11 -38 -4 -10 2 -13 21 -10
l27 4 -24 -14 c-24 -14 -24 -15 -4 -21 12 -4 24 -13 27 -21 4 -12 2 -13 -14
-3 -16 11 -23 9 -37 -7 -10 -10 -11 -14 -3 -8 12 9 21 7 40 -9 l25 -21 -25 7
c-21 6 -23 5 -9 -6 21 -17 33 -51 17 -45 -7 2 -12 10 -10 16 1 7 -2 10 -8 6
-5 -3 -13 1 -16 9 -3 9 -12 16 -20 16 -8 0 -22 4 -32 9 -9 5 -25 12 -36 15
-10 4 -16 12 -13 19 3 8 -4 13 -17 14 -11 0 -15 -1 -8 -4 6 -3 12 -17 11 -31
l0 -27 -10 24 c-6 16 -14 21 -25 17 -12 -5 -15 -2 -10 11 6 14 2 13 -16 -5
-20 -19 -21 -25 -10 -43 8 -12 11 -24 8 -27 -3 -3 -6 1 -6 9 0 11 -2 11 -10
-1 -14 -21 -12 -30 5 -30 9 0 12 -6 9 -15 -4 -8 -9 -13 -13 -10 -4 2 -8 -2 -8
-10 0 -19 2 -19 21 1 14 13 16 13 16 1 0 -9 -6 -18 -13 -21 -9 -5 -9 -7 0 -12
10 -4 9 -9 -2 -21 -22 -22 -18 -36 10 -31 13 3 22 1 19 -4 -11 -17 26 -60 47
-55 10 3 17 1 14 -3 -3 -5 1 -12 8 -17 7 -4 17 -17 21 -28 6 -16 9 -17 16 -5
8 13 12 12 24 -5 9 -11 16 -26 16 -32 0 -7 7 -13 15 -13 17 0 20 16 5 25 -5 3
-10 11 -10 17 0 7 5 6 15 -2 12 -10 16 -9 21 4 3 9 4 23 1 30 -4 10 -1 13 8 9
9 -3 18 4 24 19 8 22 38 51 122 121 28 22 43 27 90 27 31 0 73 -7 93 -15 24
-10 36 -12 36 -4 0 6 7 9 14 6 10 -4 13 -1 10 7 -3 8 4 16 15 19 14 3 19 10
15 21 -4 11 -1 16 11 16 9 0 13 5 10 10 -3 6 1 10 10 10 9 0 18 12 22 30 3 17
9 30 14 30 5 0 21 17 37 38 15 22 33 37 41 34 8 -3 11 0 7 7 -4 6 -2 11 4 11
6 0 8 4 5 10 -3 5 8 23 25 40 17 16 26 30 19 30 -15 0 -2 52 17 66 7 6 14 18
14 27 0 9 4 19 10 22 6 4 7 -6 4 -25 -4 -19 -2 -30 4 -30 6 0 9 -8 6 -17 -5
-15 -4 -16 5 -3 6 8 11 23 11 32 0 13 8 16 40 13 22 -2 41 1 41 6 3 19 5 24
12 36 4 6 5 18 1 26 -3 9 3 17 18 21 35 9 45 7 52 -10 4 -10 2 -13 -7 -8 -8 5
-7 2 2 -9 8 -10 16 -15 19 -12 3 3 11 0 19 -6 10 -9 11 -15 1 -26 -9 -11 -9
-16 1 -23 8 -4 10 -13 6 -21 -6 -9 -3 -11 8 -6 11 4 17 1 17 -7 0 -8 8 -17 18
-21 16 -6 16 -7 1 -18 -9 -7 -16 -26 -16 -42 0 -17 -9 -36 -21 -45 -12 -10
-17 -22 -12 -30 6 -10 9 -10 13 1 4 10 6 9 6 -3 1 -10 -3 -18 -9 -18 -5 0 -10
-7 -10 -15 0 -8 6 -15 13 -15 8 0 7 -4 -3 -10 -10 -6 -11 -10 -2 -10 6 0 12
-9 12 -20 0 -11 14 -34 31 -52 18 -18 25 -24 18 -13 -13 18 -13 19 4 6 9 -7
17 -20 17 -28 0 -11 4 -11 20 -3 34 18 40 4 32 -67 -1 -7 -7 -13 -14 -13 -6 0
-25 -15 -42 -33 -17 -19 -42 -40 -56 -49 -31 -18 -100 -24 -100 -8 0 6 -4 9
-9 5 -6 -3 -5 9 1 27 16 52 18 120 3 148 -8 14 -14 19 -15 12 0 -7 -4 -10 -10
-7 -5 3 -10 -1 -10 -10 0 -14 -2 -13 -18 2 -10 10 -24 27 -32 37 -12 16 -12
18 -1 11 10 -5 12 -4 7 3 -10 17 -26 15 -26 -4 0 -14 -2 -15 -17 -3 -11 10
-14 10 -9 2 4 -9 1 -13 -9 -13 -10 0 -26 -11 -37 -25 -16 -20 -23 -23 -34 -14
-11 9 -14 8 -14 -5 0 -9 -1 -19 -2 -23 -5 -14 -65 -63 -77 -63 -6 0 -11 -4
-11 -9 0 -6 -12 -23 -27 -38 -14 -15 -23 -22 -19 -16 5 9 2 11 -8 7 -21 -8
-21 -24 0 -24 14 0 14 -2 0 -15 -8 -8 -19 -15 -25 -15 -6 0 -11 -13 -11 -30 0
-41 0 -43 -11 -56 -16 -20 -32 -167 -30 -278 2 -83 9 -125 27 -179 24 -72 30
-113 17 -120 -20 -10 -73 16 -90 43 -9 17 -21 30 -25 30 -4 0 -8 10 -8 22 0
12 -8 30 -17 41 -14 15 -17 33 -15 86 2 36 5 91 5 123 1 31 6 54 11 51 5 -3 7
6 4 20 -3 15 -2 24 2 22 11 -7 17 15 16 55 -1 32 -4 35 -31 36 -16 0 -38 4
-47 8 -10 5 -30 4 -45 -2 -16 -5 -44 -7 -64 -5 -31 3 -42 -2 -73 -34 -20 -21
-36 -43 -36 -50 0 -7 -4 -13 -10 -13 -5 0 -10 -7 -10 -16 0 -8 -14 -32 -31
-53 -23 -29 -31 -52 -35 -92 -8 -85 -25 -141 -46 -147 -23 -6 -23 -27 1 -60
18 -27 18 -27 -11 -79 -19 -34 -51 -68 -87 -95 -32 -24 -67 -59 -77 -78 -10
-19 -23 -33 -27 -30 -14 8 -37 -59 -37 -106 0 -24 5 -44 10 -44 6 0 10 -5 10
-11 0 -5 -4 -8 -8 -5 -5 3 -9 -1 -9 -9 0 -8 4 -12 8 -10 11 7 16 -18 9 -45 -4
-14 -13 -24 -21 -22 -8 2 -11 1 -7 -3 3 -4 -6 -20 -20 -37 -15 -17 -26 -35
-24 -40 1 -5 -2 -7 -8 -3 -5 3 -10 14 -10 23 -1 31 -27 -15 -51 -87 -31 -96
-51 -130 -149 -265 -48 -67 -109 -160 -135 -209 l-47 -87 1579 2 1578 3 70 47
c75 51 135 98 174 138 13 14 21 18 16 10 -5 -9 -5 -12 1 -7 5 5 9 12 9 17 0
13 72 90 84 90 6 0 11 7 11 15 0 18 59 114 87 142 20 20 35 55 64 150 18 56
18 65 5 97 -15 37 -51 66 -85 69 -12 1 -21 8 -21 17 0 9 -3 11 -8 5 -4 -5 -16
-11 -27 -11 -11 -1 -33 -4 -50 -8 -18 -3 -32 -1 -37 7 -6 9 -8 9 -8 0 0 -7 -7
-10 -15 -7 -8 4 -21 1 -28 -5 -10 -8 -14 -7 -14 4 0 20 30 28 106 30 36 0 66
5 68 10 5 16 -60 52 -102 58 -28 4 -47 14 -65 37 -27 34 -77 50 -132 44 -18
-2 -66 -6 -105 -10 -40 -4 -73 -9 -73 -13 0 -3 30 -22 66 -41 74 -39 110 -76
94 -95 -5 -6 -8 -14 -5 -17 3 -2 -1 -5 -8 -5 -6 -1 -27 -6 -45 -12 -29 -9 -32
-8 -21 5 10 12 9 13 -4 9 -8 -4 -18 -17 -21 -31 -4 -13 -11 -24 -17 -24 -6 0
-7 -6 -2 -12 12 -20 12 -37 1 -44 -6 -4 -5 -10 3 -15 10 -6 10 -9 2 -9 -7 0
-10 -7 -6 -17 5 -12 3 -14 -8 -8 -11 7 -12 6 -2 -6 10 -12 10 -18 1 -27 -14
-14 -32 -16 -23 -2 3 5 -7 5 -25 -1 -25 -9 -33 -8 -48 8 -9 10 -12 12 -7 4 6
-10 0 -8 -16 4 -18 13 -23 22 -15 27 7 5 5 8 -6 8 -11 0 -15 5 -12 15 4 8 10
13 14 10 5 -3 11 -1 14 4 4 5 2 12 -3 15 -5 4 -12 2 -16 -4 -4 -6 -11 -7 -17
-4 -7 5 -8 2 -3 -7 6 -11 5 -12 -5 -2 -11 10 -9 16 11 33 13 12 19 19 13 16
-12 -6 -14 60 -2 79 4 6 -12 9 -44 6 -31 -2 -48 1 -44 7 3 5 -7 8 -24 6 -16
-2 -42 2 -57 8 -16 6 -32 12 -38 12 -5 1 -9 8 -7 17 1 9 -9 21 -23 27 -20 9
-25 19 -25 50 0 21 -3 42 -6 45 -7 7 -12 2 -86 -85 -22 -27 -45 -48 -50 -48
-6 0 -5 6 2 15 6 8 9 19 5 25 -4 6 -1 9 5 8 7 -2 21 14 32 34 11 21 25 38 30
38 6 0 7 7 4 16 -4 12 -2 15 9 11 14 -6 45 27 45 48 -1 5 -8 -3 -16 -18 -9
-16 -18 -27 -20 -24 -6 6 14 44 34 65 10 11 12 10 12 -7 0 -19 1 -19 25 5 14
14 25 28 25 32 0 4 9 13 20 20 11 7 20 19 20 28 0 8 -4 12 -10 9 -18 -11 -11
3 15 31 14 15 25 22 25 16 0 -6 -5 -14 -10 -17 -6 -3 -10 -12 -10 -18 1 -7 9
-1 20 11 15 18 17 28 10 42 -7 13 -7 21 1 26 8 4 7 9 -2 15 -11 7 -10 9 4 9 9
0 17 7 17 15 0 8 5 15 11 15 13 0 38 30 39 45 0 6 -4 4 -9 -3 -6 -10 -11 -9
-22 4 -12 16 -12 17 3 11 20 -7 51 19 42 35 -5 7 0 9 14 6 16 -5 20 -2 17 13
-2 11 0 19 4 19 5 0 20 23 34 50 24 45 24 49 7 40 -11 -6 -20 -8 -20 -5 0 11
25 32 46 39 13 4 20 16 21 33 1 19 0 23 -5 11 -5 -13 -11 -15 -22 -8 -12 8
-12 10 -1 10 7 0 11 6 7 15 -3 8 -1 15 4 15 17 0 33 41 21 53 -6 6 -11 16 -11
21 0 6 5 4 10 -4 8 -12 10 -9 10 12 0 14 6 28 13 31 6 2 9 7 6 11 -3 4 -19 2
-34 -4 -25 -9 -26 -9 -15 5 7 8 19 15 27 15 9 0 13 6 9 15 -3 8 -1 15 5 15 5
0 2 11 -7 25 -14 22 -14 25 -1 25 8 0 18 7 21 16 9 23 7 31 -4 14 -5 -8 -15
-15 -22 -15 -17 0 -27 -47 -14 -65 10 -13 9 -13 -6 -1 -10 7 -15 17 -12 22 3
5 1 9 -4 9 -19 0 -22 43 -4 57 16 13 15 14 -5 10 -18 -4 -21 0 -21 31 0 20 -5
38 -11 40 -6 2 -9 8 -5 13 3 5 -3 9 -12 9 -16 0 -16 1 -1 18 19 20 23 37 7 27
-5 -3 -10 -2 -10 4 0 5 4 12 9 15 5 3 7 15 4 25 -3 13 3 25 20 36 17 11 23 22
20 35 -3 13 0 20 9 20 7 0 14 8 14 18 1 9 6 36 12 59 5 24 6 40 1 37 -5 -3 -5
5 0 18 9 24 -5 78 -20 78 -4 0 -6 6 -3 14 3 8 1 17 -5 21 -6 3 -11 25 -11 48
0 38 -1 40 -15 21 -10 -12 -14 -14 -13 -5 2 10 -8 16 -31 18 -19 2 -36 5 -38
7 -8 8 31 45 41 39 6 -3 5 0 -2 8 -11 12 -16 11 -30 -8 -14 -17 -25 -21 -58
-19 -50 4 -60 9 -67 36 -3 11 -1 18 4 14 5 -3 9 -1 9 5 0 5 -9 13 -20 16 -18
6 -20 12 -15 48 4 23 11 49 16 59 5 9 9 31 9 48 0 24 4 31 15 27 8 -4 27 0 42
8 15 8 35 15 44 15 20 0 43 -26 35 -39 -8 -12 44 -40 62 -34 6 3 12 -1 12 -9
0 -10 3 -9 10 2 5 8 8 22 5 30 -12 41 -14 80 -5 80 7 0 7 6 0 20 -6 11 -15 18
-19 15 -5 -2 -11 4 -14 14 -3 13 0 18 7 15 7 -3 13 2 13 11 0 8 -2 13 -5 10
-10 -10 -42 17 -42 35 0 13 -5 18 -15 14 -8 -4 -12 -11 -8 -18 4 -6 -1 -5 -10
3 -12 10 -14 18 -7 31 7 13 5 29 -5 54 -8 19 -12 42 -9 50 3 8 -4 24 -15 35
-23 23 -27 41 -10 41 5 0 7 -4 4 -10 -3 -5 -1 -10 4 -10 14 0 14 23 1 36 -5 5
-13 27 -18 49 -6 30 -13 40 -27 40 -11 0 -24 10 -31 22 -6 13 -14 20 -17 16
-4 -3 -7 2 -7 11 0 10 -6 16 -12 14 -7 -3 -18 0 -25 6 -7 6 -19 17 -28 24 -11
9 -13 18 -6 29 6 11 5 23 -2 35 -9 14 -8 20 8 32 19 15 19 15 1 16 -16 0 -16
2 -6 16 11 12 11 15 0 12 -7 -2 -15 3 -17 10 -3 6 0 12 7 12 6 0 8 5 5 10 -4
6 -11 7 -17 4 -6 -4 -8 1 -4 14 4 11 2 23 -4 27 -5 3 -10 12 -10 18 0 7 4 6
11 -3 8 -12 9 -9 5 13 -4 15 -1 37 5 50 11 19 10 20 -3 9 -14 -11 -15 -7 -14
33 1 25 -2 45 -7 45 -5 0 -7 6 -4 13 2 6 10 11 17 9 10 -2 10 1 -1 14 -7 9
-14 22 -14 28 -2 32 -19 66 -33 66 -8 0 -12 3 -9 7 4 3 2 12 -4 20 -6 7 -8 13
-4 13 4 0 2 7 -5 15 -14 17 -24 89 -11 81 4 -3 6 5 5 17 -1 12 -3 28 -3 35 -1
7 -5 11 -10 7 -5 -3 -12 -1 -16 5 -3 5 1 10 10 10 17 0 16 25 -1 25 -34 2 -53
19 -62 58 -7 26 -8 43 -2 45 6 2 10 11 10 20 0 8 7 23 16 33 9 10 13 23 9 28
-4 8 -338 11 -1099 11 l-1092 0 1 -27 c0 -14 6 -28 13 -31 6 -2 12 -10 12 -18
0 -12 -4 -12 -24 3 -19 14 -23 24 -18 47 5 27 4 28 -10 15 -9 -8 -14 -17 -11
-21 2 -4 -5 -17 -15 -29 -12 -12 -18 -29 -15 -40 6 -21 -14 -52 -28 -43 -5 3
-9 -1 -9 -10 0 -8 3 -16 8 -18 4 -1 15 -18 24 -35 17 -32 16 -33 -3 -33 -13 0
-18 -4 -13 -12 4 -7 3 -8 -5 -4 -6 4 -9 12 -5 17 8 14 -4 59 -16 59 -5 0 -7
-7 -4 -15 8 -19 -23 -32 -39 -16 -8 8 -8 11 3 11 7 0 10 3 7 7 -4 3 1 12 11
20 16 12 16 13 0 7 -12 -4 -18 -1 -18 9 0 21 17 31 23 15 3 -8 6 -6 6 5 1 19
-25 24 -32 5 -7 -22 -19 -1 -12 22 5 16 10 18 20 10 10 -8 15 -8 20 0 5 8 11
4 19 -10 15 -31 31 -30 33 0 1 14 0 19 -3 12 -3 -6 -10 -10 -15 -6 -13 8 -11
25 2 22 11 -3 43 71 34 80 -2 2 -12 1 -22 -3 -11 -4 -13 -9 -7 -12 13 -4 7
-43 -6 -43 -9 0 -25 40 -22 52 1 4 -397 7 -883 8 l-885 0 0 -2140z m1910 1882
c-6 -2 -10 -14 -10 -26 0 -12 -6 -28 -12 -36 -11 -12 -10 -12 4 -2 11 9 18 10
23 2 12 -20 27 -10 21 15 -5 18 -1 27 13 34 14 8 20 7 24 -3 4 -9 14 -12 25
-9 12 3 28 -3 41 -16 21 -21 21 -22 4 -48 l-18 -26 35 7 c19 4 49 10 65 12 25
4 27 3 13 -6 -20 -12 -24 -31 -7 -27 26 5 17 -20 -12 -37 -18 -10 -29 -14 -25
-7 4 6 3 11 -2 11 -17 0 -34 -49 -30 -82 6 -35 -15 -78 -38 -78 -7 0 -16 -5
-20 -12 -5 -7 -2 -9 9 -5 11 4 14 2 11 -7 -3 -8 -13 -13 -22 -12 -9 0 -17 -6
-17 -15 0 -9 -6 -23 -13 -32 -7 -8 -14 -27 -16 -42 -2 -14 -14 -33 -27 -42
-14 -9 -19 -10 -11 -3 6 8 12 21 12 29 0 10 -6 7 -17 -9 -9 -14 -21 -28 -26
-31 -5 -4 -7 -11 -4 -15 3 -5 -7 -10 -21 -11 -15 0 -30 3 -33 8 -7 11 -39 1
-39 -12 0 -5 -5 -9 -11 -9 -6 0 -8 7 -5 16 4 12 2 15 -9 10 -18 -6 -21 24 -4
41 8 8 7 17 -5 35 -15 23 -12 68 5 68 5 0 4 9 -3 19 -10 16 -15 18 -27 8 -9
-8 -8 -2 4 16 10 15 24 26 30 23 10 -3 12 5 8 32 -4 29 0 41 16 56 24 22 28
38 6 30 -8 -4 -15 -13 -15 -21 0 -8 -4 -12 -9 -9 -5 4 -11 0 -14 -6 -2 -7 -7
-10 -11 -7 -3 3 3 18 15 33 18 23 19 30 8 36 -7 5 -10 12 -6 16 3 4 12 2 20
-4 10 -9 13 -2 13 34 0 51 -21 61 -31 14 -5 -24 -9 -27 -20 -17 -7 7 -11 14
-9 16 2 2 -4 10 -14 17 -16 12 -15 13 4 14 12 0 25 7 28 16 5 13 9 14 21 4 9
-7 18 -10 22 -7 3 4 15 0 26 -8 23 -16 47 -4 47 22 0 26 33 74 42 60 4 -6 3
-13 -2 -15z m-432 -220 c12 -11 22 -26 22 -35 0 -8 7 -18 16 -21 11 -4 14 -12
9 -24 -4 -9 -7 -27 -7 -39 2 -29 -44 -61 -83 -58 -31 2 -74 34 -93 71 -14 26
-7 69 15 98 23 30 90 34 121 8z m2775 -1029 c28 -7 20 -27 -32 -81 -36 -38
-62 -54 -102 -66 -73 -22 -85 -20 -51 9 35 29 66 89 59 115 -3 11 0 21 7 24
14 5 95 5 119 -1z m-3541 -134 c10 -5 24 -7 31 -3 7 5 6 1 -2 -10 -12 -15 -12
-17 0 -14 8 2 17 8 21 13 4 6 7 -2 6 -17 -1 -15 -5 -25 -9 -22 -4 2 -11 -1
-15 -7 -4 -7 -3 -9 4 -5 6 3 13 2 16 -3 4 -5 1 -13 -5 -17 -8 -4 -7 -9 2 -15
9 -5 9 -9 3 -9 -7 0 -11 -16 -11 -40 0 -22 5 -40 9 -40 5 0 6 -5 2 -12 -6 -10
-9 -25 -13 -75 -1 -7 -8 -10 -16 -7 -8 4 -13 10 -10 14 3 5 0 12 -6 16 -8 4
-9 3 -5 -4 10 -16 -19 -15 -32 1 -5 6 -8 22 -6 35 3 17 0 21 -8 16 -8 -5 -7 0
2 11 9 11 10 16 3 11 -8 -4 -13 -2 -13 7 0 8 -22 37 -49 65 -41 42 -49 57 -45
79 6 34 13 45 25 38 5 -4 9 -2 9 3 0 12 86 5 112 -9z m368 -32 c0 28 83 -12
103 -50 23 -44 18 -75 -18 -102 -24 -18 -69 -26 -82 -15 -3 2 -15 6 -29 9 -4
0 -1 8 6 16 10 12 10 19 2 27 -8 8 -13 7 -18 -5 -5 -15 -8 -15 -21 -2 -8 9
-19 12 -25 9 -6 -4 -8 -2 -4 4 3 6 2 14 -4 17 -8 5 -8 11 0 20 8 9 8 15 0 20
-14 8 -1 28 14 22 7 -3 18 4 25 14 6 11 16 17 21 14 6 -3 10 0 10 7 0 9 3 9
10 -2 5 -8 10 -10 10 -3z m2660 -403 c0 -8 -10 -14 -25 -14 -15 0 -25 -6 -25
-15 0 -8 -6 -12 -14 -9 -21 8 -8 -33 15 -50 22 -15 83 -96 72 -96 -3 0 -14 7
-24 16 -10 9 -35 22 -55 29 -42 14 -46 11 -76 -40 -23 -41 -33 -41 -58 0 -32
51 -30 121 4 152 14 13 30 23 36 23 6 0 19 6 30 12 15 10 27 10 49 1 24 -9 31
-8 35 3 6 17 36 7 36 -12z m-428 -947 c20 -12 55 -39 77 -59 22 -21 45 -38 51
-38 5 0 10 -4 10 -9 0 -5 9 -11 19 -14 21 -5 61 -74 61 -105 0 -32 -20 -80
-36 -86 -9 -3 -12 -1 -9 4 10 16 -24 23 -43 9 -14 -11 -15 -11 -5 1 8 9 9 18
3 25 -7 8 -5 12 5 12 8 0 12 -4 10 -8 -3 -3 4 -9 16 -12 17 -5 19 -2 15 21
-11 60 -27 95 -53 118 -32 27 -26 26 -115 29 -36 1 -73 5 -82 8 -8 3 -18 2
-21 -4 -4 -5 -11 -7 -16 -4 -5 4 -9 1 -9 -5 0 -6 -4 -8 -10 -5 -5 3 -10 3 -10
-2 0 -7 -24 -8 -97 -4 -7 1 -15 12 -19 26 -8 33 -16 32 -37 -5 -20 -34 -17
-37 43 -43 38 -3 108 -37 235 -112 44 -27 86 -48 93 -48 6 0 10 -3 7 -6 -3 -3
10 -14 29 -26 47 -28 126 -97 126 -109 0 -5 12 -22 27 -38 20 -21 26 -37 26
-71 -1 -46 -33 -121 -55 -130 -19 -7 -45 34 -43 68 1 20 -10 46 -34 80 -20 28
-39 51 -43 53 -5 2 -8 9 -8 15 0 14 -39 41 -47 33 -6 -6 -120 52 -129 65 -7
12 -126 69 -142 69 -7 0 -14 11 -18 25 -3 14 -18 30 -35 37 -16 7 -29 19 -29
26 0 7 -23 36 -51 64 -27 27 -49 51 -47 52 2 1 31 16 64 34 54 28 68 31 115
26 99 -11 132 -5 122 21 -3 10 1 15 11 15 9 0 19 7 22 15 8 20 12 19 56 -8z
m-181 -686 c57 -36 169 -139 169 -156 0 -6 9 -20 21 -31 17 -16 20 -27 16 -74
-2 -30 -8 -65 -12 -78 -6 -19 -3 -24 24 -33 17 -6 31 -15 31 -19 0 -4 17 -12
38 -17 33 -8 37 -13 40 -42 7 -68 -24 -110 -56 -77 -12 12 -17 11 -34 -6 -20
-20 -20 -20 -35 1 -8 12 -29 27 -46 35 -18 7 -50 29 -71 48 -26 23 -50 35 -71
36 -18 1 -56 15 -83 31 -28 16 -52 29 -54 28 -2 -1 1 4 8 11 8 10 38 11 138 5
92 -6 130 -5 133 3 10 27 7 99 -4 99 -7 0 -22 8 -33 18 -11 9 -23 17 -27 17
-4 0 -33 27 -65 60 -32 34 -62 59 -67 56 -15 -9 -52 40 -58 78 -5 34 -4 36 23
36 16 0 50 -13 75 -29z"/>
<path d="M5274 4363 c3 -10 8 -38 11 -61 4 -32 2 -43 -7 -39 -7 2 -12 14 -10
25 2 12 -2 22 -7 22 -14 0 -14 -37 -1 -45 6 -3 10 -15 10 -26 0 -21 15 -25 26
-7 5 8 10 6 16 -8 5 -12 6 -7 2 15 -4 23 -3 31 5 27 6 -4 11 -14 11 -22 0 -8
8 -14 18 -15 10 0 12 -3 5 -6 -7 -2 -13 -11 -13 -19 0 -8 -4 -14 -9 -14 -5 0
-12 -7 -15 -16 -7 -19 22 -46 42 -39 7 3 12 -4 12 -18 0 -18 -2 -19 -10 -7 -8
13 -10 12 -10 -3 0 -10 7 -20 15 -23 8 -4 13 -10 10 -15 -3 -4 0 -17 6 -28 10
-15 9 -22 -4 -36 -16 -15 -17 -15 -17 5 0 12 5 18 10 15 6 -3 10 -1 10 5 0 7
-7 9 -16 6 -9 -3 -17 -6 -20 -6 -2 0 1 -11 6 -25 5 -14 9 -29 9 -33 -3 -20 2
-32 15 -32 16 0 31 -64 19 -83 -4 -7 4 -5 18 4 l24 16 -4 -41 c-3 -26 -6 -33
-9 -18 -2 12 -7 22 -11 22 -5 0 -6 -11 -3 -25 3 -16 11 -25 24 -25 10 0 17 -4
13 -10 -3 -5 -12 -7 -20 -3 -8 3 -15 1 -15 -5 0 -5 7 -12 15 -16 8 -3 15 -11
15 -18 0 -9 -3 -8 -10 2 -8 13 -10 12 -10 -3 0 -10 7 -20 15 -24 14 -5 14 -7
0 -23 -15 -17 -15 -19 5 -25 14 -4 19 -12 16 -22 -3 -8 -6 -19 -6 -24 0 -4 -8
-5 -17 -2 -13 5 -15 3 -9 -13 9 -22 18 -71 18 -96 -1 -10 4 -18 10 -18 5 0 8
-7 4 -15 -3 -9 0 -15 8 -15 8 0 11 -10 8 -31 -3 -22 -1 -30 7 -25 6 4 11 3 11
-3 0 -5 -8 -12 -17 -14 -14 -4 -13 -5 4 -6 22 -1 32 18 32 59 -1 8 5 55 11
104 14 108 10 320 -7 337 -6 6 -9 25 -6 45 3 20 1 34 -4 34 -10 0 -15 24 -29
120 -3 19 -9 39 -15 46 -5 6 -7 19 -3 27 3 9 -2 42 -11 74 -10 32 -18 67 -20
78 -10 73 -12 75 -87 75 -61 0 -69 -2 -64 -17z"/>
<path d="M6609 3392 c-1 -4 -1 -10 0 -14 2 -12 -14 -9 -27 4 -7 7 -12 10 -13
8 -6 -37 -7 -52 -2 -41 5 11 7 11 15 0 7 -10 8 -9 3 6 -5 15 -3 17 6 8 13 -13
3 -37 -12 -28 -5 4 -9 0 -9 -7 0 -10 -3 -9 -10 2 -12 19 -60 22 -53 3 3 -8 0
-13 -8 -11 -7 2 -14 -6 -16 -17 l-3 -20 9 20 c9 18 10 17 8 -7 -1 -21 -4 -24
-14 -16 -7 6 -13 7 -13 3 0 -4 -6 -3 -13 3 -10 8 -13 6 -14 -11 -2 -18 0 -19
8 -7 8 12 9 11 7 -5 -3 -21 -25 -27 -45 -12 -9 6 -15 4 -19 -7 -5 -13 -10 -14
-27 -4 -19 10 -20 9 -10 -4 11 -12 9 -14 -7 -13 -11 1 -22 4 -26 8 -8 8 -50
-42 -57 -68 -3 -12 -5 -7 -4 12 1 17 4 30 8 27 4 -2 10 0 14 6 3 5 1 10 -5 10
-6 0 -8 6 -5 13 4 6 0 4 -8 -5 -11 -14 -16 -15 -26 -5 -10 9 -12 9 -9 -3 2 -8
-3 -14 -10 -12 -9 2 -11 -2 -5 -10 4 -7 8 -16 8 -20 0 -3 3 -10 7 -14 4 -3 6
3 3 14 -2 12 0 24 6 27 5 4 9 -7 9 -24 0 -39 17 -49 29 -18 6 14 15 28 22 33
8 4 10 3 5 -4 -7 -12 1 -15 36 -15 10 0 15 -3 13 -8 -6 -8 -38 -5 -55 6 -17
11 -11 -22 7 -36 11 -10 14 -10 9 -1 -4 6 -2 12 3 12 6 0 11 -8 11 -17 0 -11
3 -14 8 -7 9 14 42 9 53 -8 7 -10 9 -10 9 2 0 9 3 11 8 4 4 -5 22 -10 40 -9
18 0 38 -5 44 -12 5 -7 14 -11 18 -8 5 3 12 1 15 -5 5 -8 11 -7 21 1 11 9 14
8 14 -2 0 -11 2 -11 10 1 9 13 10 13 10 0 0 -12 2 -12 9 -2 6 9 21 12 45 9 20
-3 39 -1 42 4 3 5 9 7 14 4 5 -3 7 9 5 27 -3 18 -1 28 3 21 9 -15 51 -13 49 2
-1 5 4 9 11 7 8 -1 11 2 7 8 -6 10 9 15 30 10 5 -1 7 2 2 6 -4 4 1 17 10 28
18 21 18 21 -4 3 -11 -10 -23 -15 -25 -10 -5 9 28 44 34 37 3 -2 4 5 3 16 -1
11 -7 26 -15 33 -9 8 -11 8 -6 0 3 -6 2 -14 -4 -18 -5 -3 -10 -12 -10 -18 0
-7 4 -6 10 3 5 8 10 11 10 5 0 -5 -5 -17 -10 -25 -11 -17 -13 -12 -14 40 -1
14 -5 26 -10 27 -5 1 -12 7 -16 13 -5 8 -9 7 -13 -5 -5 -10 -3 -14 5 -9 7 5 8
3 3 -6 -6 -9 -4 -11 5 -5 9 6 11 4 5 -5 -5 -8 -4 -11 3 -7 6 5 8 -1 4 -15 l-5
-22 -9 23 c-7 20 -10 22 -26 10 -15 -12 -15 -12 -5 1 12 16 13 19 13 49 0 15
6 19 20 16 11 -2 18 0 15 5 -3 5 -15 7 -26 5 -15 -3 -19 0 -15 11 3 9 2 12 -4
9 -6 -3 -8 -16 -6 -28 1 -12 1 -16 -1 -9 -3 7 -9 10 -14 6 -5 -3 -6 -11 -3
-17 4 -7 4 -9 -1 -5 -4 4 -15 2 -24 -4 -9 -7 -5 0 8 14 26 30 23 58 -6 54 -10
-2 -22 -1 -28 3 -15 8 -35 10 -36 3z"/>
<path d="M5534 3340 c-66 -31 -82 -51 -59 -73 10 -11 11 -17 2 -26 -8 -8 -8
-11 0 -11 8 0 9 -9 3 -29 -4 -16 -6 -32 -3 -34 3 -3 6 -27 8 -54 10 -136 36
-344 47 -368 9 -19 9 -34 0 -58 -13 -40 -15 -447 -1 -447 25 0 79 31 94 54 23
35 17 128 -13 185 -12 23 -22 48 -20 54 1 7 -8 32 -20 56 -26 52 -25 51 -11
51 6 0 19 -10 30 -22 l19 -23 -1 60 c-1 156 2 239 10 249 4 6 23 54 41 106 29
80 34 109 35 185 0 85 -13 125 -25 74 -3 -12 -11 -24 -18 -27 -10 -3 -12 8 -7
48 10 87 -13 97 -111 50z"/>
<path d="M6144 533 c4 -7 9 -22 11 -33 3 -16 -2 -20 -21 -20 -18 0 -23 -4 -18
-12 6 -10 4 -10 -8 0 -10 8 -19 9 -22 4 -3 -6 2 -13 11 -16 15 -6 15 -8 3 -16
-13 -8 -12 -10 3 -10 19 0 23 -15 6 -26 -8 -4 -7 -9 2 -15 8 -4 15 -27 16 -49
1 -26 8 -46 18 -54 16 -11 16 -13 -1 -27 -16 -12 -17 -12 -12 3 4 10 1 18 -10
20 -22 6 -44 -1 -37 -12 3 -5 1 -11 -4 -14 -5 -3 -7 8 -6 24 2 19 -2 30 -11
30 -8 0 -11 -8 -9 -21 2 -11 -1 -29 -8 -40 -10 -16 -9 -21 2 -28 8 -5 10 -14
6 -21 -5 -9 -4 -11 3 -6 7 4 12 15 12 24 0 13 5 12 24 -8 12 -14 19 -28 14
-31 -5 -3 -2 -9 7 -12 9 -4 14 -3 11 2 -3 5 2 15 11 22 12 10 14 10 9 2 -5 -9
0 -13 13 -13 14 0 19 5 15 15 -4 10 0 15 11 15 9 0 14 -4 11 -8 -7 -12 148
-10 156 2 4 6 8 0 9 -14 0 -17 3 -20 7 -10 6 12 11 11 32 -9 14 -13 19 -21 13
-17 -15 8 -18 -10 -3 -19 5 -3 7 -12 3 -20 -4 -12 8 -15 71 -15 63 0 74 2 70
15 -4 8 -11 12 -17 8 -6 -3 -7 -1 -3 6 4 6 12 9 17 6 5 -4 9 -1 9 4 0 6 -5 11
-12 11 -6 0 -9 2 -6 5 3 3 17 1 32 -4 20 -8 26 -8 26 4 0 7 -5 17 -12 21 -7 5
-8 3 -3 -6 5 -9 4 -11 -3 -6 -17 10 -15 24 6 29 14 3 12 6 -9 15 -15 6 -29 17
-32 25 -3 9 -22 21 -41 28 -32 11 -41 25 -37 52 0 4 -7 7 -17 7 -10 0 -25 9
-35 20 -10 12 -22 18 -28 14 -7 -4 -6 3 2 17 11 22 11 23 -4 10 -20 -16 -23
-2 -4 19 6 8 1 6 -12 -5 -23 -20 -23 -20 -20 0 3 14 -6 24 -31 36 -19 9 -39
15 -45 13 -6 -3 -29 3 -51 13 -21 9 -42 16 -46 15 -5 -1 -8 1 -9 6 -3 27 -9
46 -20 56 -9 8 -10 8 -5 -1z"/>
<path d="M6767 412 c-15 -3 -16 -6 -5 -20 11 -13 11 -15 -3 -10 -9 4 -16 1
-16 -8 0 -7 4 -11 9 -8 4 3 5 -2 2 -10 -4 -10 -1 -16 7 -17 8 0 7 -3 -4 -7
-17 -7 -16 -9 3 -29 11 -12 20 -25 20 -28 0 -6 14 -24 46 -58 11 -13 33 -44
48 -70 l28 -47 179 0 180 0 -2 115 c-1 106 -8 140 -24 116 -4 -7 -15 -7 -31
-1 -14 6 -30 7 -35 4 -6 -3 -16 0 -24 6 -8 7 -15 9 -15 4 0 -5 -5 -2 -10 6 -6
9 -10 10 -10 3 0 -14 -42 -13 -52 2 -5 6 -8 4 -8 -5 0 -12 -2 -12 -9 -2 -4 7
-14 15 -22 16 -48 10 -68 19 -62 30 4 6 0 5 -9 -2 -18 -14 -102 -12 -115 3 -5
4 -3 5 4 1 6 -3 15 -1 19 6 4 7 4 10 0 7 -4 -4 -21 -4 -39 0 -18 4 -40 5 -50
3z"/>
</g>
</svg>
